<svg xmlns="http://www.w3.org/2000/svg" viewBox="0 0 941.31 504.52"><defs><style>.cls-1{fill:#a10034;}.cls-2{font-size:163.61px;fill:#fff;font-family:Futura-CondensedMedium, Futura;letter-spacing:0em;}.cls-3{stroke:#000;stroke-miterlimit:10;stroke-width:11px;}</style></defs><title>Asset 17</title><g id="Layer_2" data-name="Layer 2"><g id="Layer_1-2" data-name="Layer 1"><path class="cls-1" d="M5.38,0H59.46V11.93H40.85V101.2H24.55V11.93H5.38Z"/><path class="cls-1" d="M67,0H83.63V39.59H108V0h16.61V101.2H108V51.12H83.63V101.2H67Z"/><path class="cls-1" d="M142,0h44.18V11.54H158.61V43.59h24.44V55.12H158.61V89.66h27.56V101.2H142Z"/><path class="cls-1" d="M32.78,196.34H45.72L72.16,319.68H55.71l-4.64-24H26.63l-4.72,24h-16Zm15.9,86.44L45,263.12q-3.68-20-6-42.82-1.12,11.12-2.88,22.49T32,267l-3,15.82Z"/><path class="cls-1" d="M80.27,196.34H96.89v48.25h24.37V196.34h16.62V319.68H121.26v-61H96.89v61H80.27Z"/><path class="cls-1" d="M172.83,196.34h12.94l26.44,123.34H195.76l-4.64-24H166.68l-4.72,24H146Zm15.9,86.44-3.68-19.66q-3.68-20-6-42.82-1.12,11.12-2.88,22.49T172,267l-3,15.82Z"/><path class="cls-1" d="M220.32,196.34h21.89q13.59,0,20.21,6.47,8.4,8.38,8.39,25.64,0,13.26-4.43,21.29t-12.66,9.95l22.69,60H259.55l-22.61-60.39v60.39H220.32ZM236.94,251q9.66,0,13.66-4.47t4-15.1a49.46,49.46,0,0,0-.84-9.83,17.55,17.55,0,0,0-2.64-6.63,10.67,10.67,0,0,0-4.63-3.76,17.48,17.48,0,0,0-6.75-1.19h-2.8Z"/><path class="cls-1" d="M348,261.05q0,32.67-7.27,46.41T316.31,321.2q-18,0-25.32-14.78-7.28-14.46-7.27-51.37,0-32.91,7.19-46.57t24.6-13.74q15.51,0,23,10.62,5,7.11,7.19,20.22Q347.95,237.71,348,261.05Zm-17.42,1.75q0-32-2.87-42.5t-11.75-10.54q-8.87,0-11.82,9.66t-2.88,39.15q0,27.07,3,37.55,3.12,9.9,11.66,9.9t11.51-9.26Q330.53,287.57,330.53,262.8Z"/><path class="cls-1" d="M362.77,196.34h15.5l16.53,49.21a448.91,448.91,0,0,1,12.71,44.5q-2-14.31-3-25.89t-1-21.81v-46h16.7V319.68H404.71L386.1,264.16q-2.57-7.74-4.84-15.9t-4.19-17.09c-.11-.75-.28-1.65-.52-2.72s-.52-2.29-.84-3.67c.16,1.38.29,2.57.4,3.55s.19,1.83.24,2.52l.88,12.54.88,15.26c.05.85.09,1.89.12,3.11s0,2.62,0,4.16l.88,53.76H362.77Z"/><path class="cls-1" d="M499.58,261.05q0,32.67-7.27,46.41T468,321.2q-18,0-25.33-14.78-7.28-14.46-7.27-51.37,0-32.91,7.19-46.57t24.61-13.74q15.5,0,23,10.62,5,7.11,7.19,20.22Q499.58,237.71,499.58,261.05Zm-17.41,1.75q0-32-2.88-42.5t-11.74-10.54q-8.88,0-11.83,9.66t-2.87,39.15q0,27.07,3,37.55Q459,306,467.55,306q8.38,0,11.5-9.26T482.17,262.8Z"/><path class="cls-1" d="M504.58,196.34H521l7.43,45.53,1.28,8.23L532.3,268q.63,4.54,1.16,8.3c.34,2.51.65,4.77.92,6.8l.79,6.07c.16-1.23.3-2.32.4-3.28s.22-1.76.32-2.4l2.16-14.3,2.8-18.77c.26-1.7.52-3.27.75-4.71s.47-2.72.68-3.84l8-45.53h15.5L541.56,319.68H528.38Z"/><text class="cls-2" transform="translate(592.7 458.35)">EFFECT</text><line class="cls-3" x1="721.5" y1="480.7" x2="928" y2="480.7"/><line class="cls-3" y1="124.7" x2="77" y2="124.7"/></g></g></svg>