<svg xmlns="http://www.w3.org/2000/svg" viewBox="0 0 269.21 238.11"><defs><style>.cls-1{fill:#fff;}</style></defs><title>Asset 3</title><g id="Layer_2" data-name="Layer 2"><g id="Layer_2-2" data-name="Layer 2"><path class="cls-1" d="M164.68,2.51C169.29,1.69,173.5.9,177.74.26a1.93,1.93,0,0,1,1.49,1.13c4.84,15.8,8.32,31.8,6.68,48.49a6.72,6.72,0,0,0-.11,2.22,8.64,8.64,0,0,0,1.2,2.06c.59-.53,1.56-1,1.72-1.62,1-4.12,2.08-8.26,2.71-12.46,2-13.18,1.46-26.21-3-38.92A5.63,5.63,0,0,1,188.38,0c3.31.51,6.52.89,9.69,1.53,6.56,1.32,6.49,1.38,6.88,8,.6,10.24,1,20.47-.92,30.62-.84,4.54-2.12,9-3.05,13.53-.16.81.44,1.77.68,2.66.72-.48,1.78-.8,2.12-1.47,6.67-13.1,10.58-26.92,10.51-41.72,0-1.92-.19-3.84-.3-6.06a67.21,67.21,0,0,1,15.14,9.82c.5.42.56,1.64.45,2.44-1.62,12.17-4,24.15-9.51,35.28-1,2-2,4-2.84,6.08a7.58,7.58,0,0,0,0,2.61c.87-.31,2.06-.36,2.56-1a90.17,90.17,0,0,0,15.71-28.73c.83-2.52,1.55-5.09,2.41-7.92a54.48,54.48,0,0,1,9.26,17c3.28,9.66,3.7,19.6,3,29.67a9.41,9.41,0,0,0,.68,3.82c4.09,9.21,6.6,18.71,5.74,28.9a37.33,37.33,0,0,1-5.47,16.42c2.85,1.39,5.62,2.75,8.41,4.08.67.32,1.4.53,2.09.8,1.54.61,2.36,1.68,1.69,3.32A2.2,2.2,0,0,1,260,130.9c-4.14-2-8.45-3.81-12.32-6.27-3.49-2.22-6.49-5.22-9.82-8-.17.34-.42.83-.66,1.33-6.66,13.74-19.45,17.77-32.69,17.19-14.91-.66-21.85-16.61-18.39-27.32,1.52-4.71,2.45-9.56,1.39-14.55a10.7,10.7,0,0,0-1.11-2.89c.16,5.46-2.2,10.08-4.38,14.79-2.54,5.48-2,11.09-.15,16.62.86,2.6,2.07,5.09,3.19,7.81a6.53,6.53,0,0,1-1.13.17c-13.73-.56-27.54-.39-41.16-1.94-11-1.26-21.2.58-31.4,4-4.45,1.5-8.87,3.23-13.74,2.07-6.19-1.48-7-1.94-8-7.65-.75-4.09,1.59-7.63,5.81-9.88a73.53,73.53,0,0,0,9.31-5.69,14,14,0,0,0,5.35-8.89c-1.15,1.35-1.87,2.19-2.58,3a12.94,12.94,0,0,1-7.66,4.7A22.61,22.61,0,0,0,89.63,115c-3.69,3.19-5.32,7.13-4.07,12a10.3,10.3,0,0,1,.14,1.47c-2.9-.55-5.66-1-8.38-1.6a48.87,48.87,0,0,1-16.72-6.74,3,3,0,0,0-2.23-.21c-6.54,2-12.9,1.73-19.59,0-6.84-1.77-12.49-4.47-16.58-10.5-2.3-3.4-5.55-6.16-8.38-9.21l-.58.4a30.3,30.3,0,0,0,2.06,3.81c3.43,4.62,6.74,9.36,10.51,13.68,2.93,3.35,3,9.64-.92,12.9a20,20,0,0,1-5.78,3.24c-3.49,1.29-7.13,2.16-10.67,3.34A4.74,4.74,0,0,0,5,142.72c2.08,1.34,4.16,1.13,6.27.37,4.78-1.7,9.49-3.64,14.35-5.05,12.74-3.71,25.83-4.38,39-3.4a380.35,380.35,0,0,0,56.18.43A268.09,268.09,0,0,1,177,136.44c8.2,1.14,16.49,1.55,24.45,4.17,11.74,3.86,22.87,8.94,32.14,17.23A63.2,63.2,0,0,1,244,169.79c8.34,12.48,16.25,25.24,24.37,37.87.9,1.41,1.34,2.88-.07,4-1.6,1.22-2.89.3-3.86-1.23q-12.22-19-24.47-38.08c-1.19-1.85-2.52-3.61-4-5.65l-7.57,12.56a41,41,0,0,0-24.36-18.88l6.11-11.8c-5.25-1.63-10.17-3.77-15.3-4.61-10.67-1.76-21.44-3-32.19-4.16-17.48-1.9-34.93.26-52.4.52-15.23.24-30.48-.3-45.7-.92-16.12-.65-32,.12-47,6.6-1.91.82-3.93,1.41-5.9,2.08-3.18,1.08-6.2.39-9.12-.94A4,4,0,0,1,0,143c.17-4.47,1.82-8.06,6.27-9.67,3.64-1.32,7.41-2.27,11.07-3.55a13.24,13.24,0,0,0,4.26-2.31c2.07-1.79,2.06-3.94.39-6.14-3.66-4.83-7.49-9.53-10.85-14.55a21.19,21.19,0,0,1-2.6-7.44c-.39-1.88.79-3.46,2.58-4.32a3.89,3.89,0,0,1,4.75.85c4.63,4.87,9.21,9.78,13.69,14.79a8.23,8.23,0,0,0,4.34,2.86c3.33.79,6.6,1.85,9.92,2.74a20.35,20.35,0,0,0,11.64-.53c-5-6.43-6.21-14.3-9.2-21.41-2.5-5.95-4.94-11.94-9.13-16.87-6.54-7.71-7.46-16.64-5.9-26,1.3-7.8,3.43-15.45,5.14-23.18a10.56,10.56,0,0,0,.26-2.85c-.37-6,1.54-11.4,4.18-16.9,4.65,1.66,8.73,3.84,11.08,8.26,1,2,2.19,3.67,4.3,4.66a3,3,0,0,1,1.17,1.72c.67,1.9,1.17,3.85,1.83,5.75a16.49,16.49,0,0,0,1.27,2.28l.63-.08c.76-3,1.51-6,2.3-9.1h3.35c.91,4.23-.12,8.78,2.22,13.43a15.44,15.44,0,0,0,1.42-2.85c.59-2.61,1.06-5.26,1.52-7.9.6-3.39.58-3.39,4.11-2.8L77.27,31l1,.11c.8-2.35,1.72-4.66,2.38-7,.46-1.66,1-2.7,3-2.66,2.67.07,4.74-1.46,6.69-3.22a74.77,74.77,0,0,1,8-6.56c2.62-1.77,5.29-.72,5.95,2.38a43.39,43.39,0,0,1,1.37,9.5c0,5.94,2.17,11.27,4.11,16.61,1.8,5,10.11,5.44,13.58.9a46.78,46.78,0,0,0,3.92-6.77,56.54,56.54,0,0,1,9.51-13.75c2.59,6.29,5.49,12.11,7.38,18.24,2.17,7,3.43,14.34,5.08,21.53.12.51,0,1.12.28,1.53a13.87,13.87,0,0,0,1.54,1.82c.46-.63,1.29-1.25,1.33-1.91.18-3.73.34-7.47.2-11.19a83.21,83.21,0,0,0-9.38-36.29l13.23-8.33c.36.71.6,1.06.74,1.45,5.87,15.62,10.1,31.57,9.46,48.47a2.24,2.24,0,0,0,0,1.1A17.93,17.93,0,0,0,168,58.67c.53-.51,1.43-1,1.52-1.54.82-5.15,1.81-10.31,2.16-15.5C172.59,28.31,170.74,15.4,164.68,2.51ZM86.09,55.38c0-2.15-.09-3.87,0-5.58.05-.54.61-1.43,1-1.46a2.22,2.22,0,0,1,1.81.83,8.48,8.48,0,0,1,.87,2.73c.21.93.31,1.9.53,3.33l7.84-9.3c-1.73,0-2.9,0-4.06,0-3-.1-6-.26-9-.33a2.66,2.66,0,0,0-3,2.93A8,8,0,0,0,86.09,55.38Zm-32.44-.94.53.34A28.34,28.34,0,0,0,57,51.16c1.92-3.43.77-5.47-3.14-5.58s-8,0-12.7,0l8.31,9.95a34.09,34.09,0,0,1,.07-5.08A8,8,0,0,1,50.94,48c.68.71,1.66,1.3,2,2.14A24.53,24.53,0,0,1,53.65,54.44ZM63,69.37V74.8l4,.39V68.61Zm7.13-.32c0,1.78,0,3.33,0,4.88A9.28,9.28,0,0,0,70.3,75H74C74.48,70.67,74.48,70.67,70.13,69.05ZM65.82,58l-.46,1.14c1.21,1,2.56,3,3.59,2.83,1.34-.19,2.42-2.08,3.61-3.24l-.85-1.3ZM84.44,72,91,64.54C86,65.86,83.85,68.08,84.44,72ZM59,69.09l-3.25-.64c-.34,4-.08,4.37,3.25,4.85Zm22.12.59L78,70.23v3.89C81.69,73.53,81.77,73.43,81.12,69.68Zm-34.42-5,6.06,5C52.94,66.84,51.25,65.47,46.7,64.72Z"/><path class="cls-1" d="M137.15,207.28c3.89,1.7,7.44,3.85,11.28,4.71,2.95.67,3.76,2.1,4.33,4.56a45.79,45.79,0,0,1,0,21.43c-12.38.91-22.85-3-32-11.83A54.4,54.4,0,0,0,137.15,207.28Z"/><path class="cls-1" d="M192.12,222.63c-2.62-9.89-7.52-17.56-15.09-23.56,2.72-3.23,5.33-6.37,8-9.44a1.76,1.76,0,0,1,1.54-.23,48.11,48.11,0,0,1,22.67,16.3Z"/><path class="cls-1" d="M108.54,201c-.29-2.89-.57-5.72-.82-8.24L127,191.45c.41,1.47.93,3.45,1.51,5.41a3.5,3.5,0,0,0,.78,1.59c2.59,2.5,1.39,4.78-.18,7.22a37.69,37.69,0,0,1-11.9,11.94,2.62,2.62,0,0,1-2.31.12c-3.79-2.6-7.12-5.74-9.11-9.95a18.15,18.15,0,0,1-1.25-5.57,2.71,2.71,0,0,1,.91-2.27c.53-.29,1.58.3,2.37.58A3,3,0,0,1,108.54,201Z"/><path class="cls-1" d="M162.65,236.49a46.47,46.47,0,0,0-2.73-24.93l11.1-6.72a44.21,44.21,0,0,1,11.4,16.89c2.7,7.29,3.31,5.33-3.37,9A58.74,58.74,0,0,1,162.65,236.49Z"/><path class="cls-1" d="M190.73,181.91c3.12-4.84,6.05-9.41,9.07-14.13a51.28,51.28,0,0,1,23.75,18.93l-8.86,12.07A42.1,42.1,0,0,0,190.73,181.91Z"/><path class="cls-1" d="M111.07,183.18c4.18-6.59,8.57-12.37,16.23-14.33a11.62,11.62,0,0,1,5.46.2c1.84.46,2.09,1.82,1.14,3.49-1.48,2.58-2.87,5.23-4.45,7.75a4.13,4.13,0,0,1-2.17,1.61A42.43,42.43,0,0,1,111.07,183.18Z"/></g></g></svg>