<svg xmlns="http://www.w3.org/2000/svg" viewBox="0 0 349.26 327.01"><defs><style>.cls-1{fill:#fff;}</style></defs><title>Asset 4</title><g id="Layer_2" data-name="Layer 2"><g id="Layer_2-2" data-name="Layer 2"><path class="cls-1" d="M11,256l53.71,59.94L78,304.06c-3.68-4.1-7.49-8.14-11-12.42a7.51,7.51,0,0,1-1.73-4.91,4.6,4.6,0,0,1,3.07-3.14,6,6,0,0,1,4.58,1.53c4,4.07,7.7,8.44,11.7,12.9L108,277.08c-3.61-4-7.25-8.07-10.86-12.13-2.67-3-2.85-5.46-.59-7.44s4.58-1.48,7.34,1.55c3.43,3.78,6.83,7.58,10.26,11.37a4.44,4.44,0,0,0,.81.48L138,250.2l-8.5-9.49c-6.81-7.6-13.6-15.22-20.45-22.79-2.08-2.3-3.09-4.62-.63-7.19,2.09-2.17,4.69-1.72,7.33,1.22q13.11,14.58,26.18,29.2l2.78,3.1,23.37-20.93c-3.8-4.24-7.74-8.34-11.28-12.77a6.92,6.92,0,0,1-1.28-5.31c.87-3.25,4.92-3.61,7.55-.9,2,2,3.84,4.25,5.75,6.38l5.88,6.55,23.36-20.93-2.68-3-25.67-28.65c-3.11-3.47-3.42-5.93-1-8s4.58-1.44,7.59,1.91q12.84,14.31,25.67,28.64l2.82,3.15,23.37-20.94c-3.64-4.06-7.45-8.09-11-12.37a7.55,7.55,0,0,1-1.77-4.9,4.58,4.58,0,0,1,3-3.17,5.87,5.87,0,0,1,4.59,1.49c4,4.06,7.71,8.44,11.72,12.92l23.37-20.94-2.6-2.91Q242.46,125,229.38,110.36c-2.72-3-2.9-5.44-.66-7.44s4.6-1.56,7.34,1.49q13,14.45,25.93,28.92l2.86,3.2,23.36-20.94c-3.69-4.12-7.33-8.15-10.94-12.22-2.63-3-2.81-5.57-.44-7.42,2.81-2.18,5-.93,7.08,1.38,3.46,3.92,7,7.78,10.51,11.65.14.16.41.21.81.39l23.06-20.66c-3.68-4.1-7.5-8.14-11-12.42a7.46,7.46,0,0,1-1.73-4.91,4.62,4.62,0,0,1,3.08-3.14,6,6,0,0,1,4.57,1.54c4,4.06,7.71,8.43,11.71,12.89l13.18-11.81L284.44,11l-3.37,3L160.36,122.16c-.74.67-1.47,1.34-2.23,2-2.19,1.9-4.54,2.24-6.61,0s-1.6-4.53.51-6.57c.45-.43.92-.84,1.39-1.25Q216.83,59.51,280.25,2.7c4.15-3.72,5.85-3.63,9.56.51l56.82,63.41c3.66,4.09,3.54,5.81-.65,9.56q-138.36,124-276.74,248c-4.36,3.91-5.93,3.82-9.83-.52L2.59,260.23c-3.59-4-3.49-5.6.57-9.24L130,137.34c.74-.66,1.47-1.82,2.26-1.86,1.91-.09,4.57-.34,5.57.74s.68,3.75.32,5.6c-.19,1-1.67,1.75-2.6,2.58l-121,108.41Z"/></g></g></svg>