<svg xmlns="http://www.w3.org/2000/svg" viewBox="0 0 310.57 183.25"><defs><style>.cls-1{fill:#fff;}</style></defs><title>Asset 2</title><g id="Layer_2" data-name="Layer 2"><g id="Layer_2-2" data-name="Layer 2"><path class="cls-1" d="M306.7,2.1V4.92C296,6.22,290,13.8,284.78,22.09c-7.32,11.56-12.09,24.33-17.4,36.85-4.06,9.58-8.06,19.21-12.68,28.52A69.84,69.84,0,0,1,245,102.07c-8,9.23-18.26,9.62-26.72.79a70.19,70.19,0,0,1-11.74-16.24c-6.55-12.77-12.15-26-18.31-39-4-8.49-8.18-16.94-12.67-25.19a54,54,0,0,0-7.69-10.56c-8.26-9-16.61-9.12-24.77-.08a65.35,65.35,0,0,0-9.8,14C127,38.07,121.44,50.67,115.49,63.08c-4.43,9.22-8.69,18.57-13.74,27.45A57.76,57.76,0,0,1,91,104c-7.51,7-16.37,6.6-24-.27-6.17-5.57-10.49-12.52-14-19.9C46.37,69.72,40.27,55.34,33.69,41.18,30.33,34,26.58,26.91,22.67,20a52.65,52.65,0,0,0-6.56-8.59C13,7.84,9.1,5.4,4.12,5V2.16c4.84.07,8.7,2.11,12.12,5.09C22.63,12.84,27,20,30.58,27.48,36.91,40.92,42.64,54.64,49,68.09c3.88,8.27,8.08,16.42,12.7,24.3a41.15,41.15,0,0,0,8.54,9.86,13.72,13.72,0,0,0,17,.84,39,39,0,0,0,12-14.21c6.35-12.49,12.25-25.2,18.35-37.82,4.52-9.37,8.76-18.89,13.71-28A67.74,67.74,0,0,1,141.41,9c8.84-9.38,18.84-9.23,28-.14a64.46,64.46,0,0,1,12.26,17.78c6.24,12.92,12,26.06,18.23,39,4,8.32,8,16.65,12.68,24.6a51.13,51.13,0,0,0,9.91,11.94c6.06,5.45,13,5.24,18.69-.61a52.67,52.67,0,0,0,9.59-13.14c5.78-11.92,10.75-24.23,16.2-36.31,4.43-9.79,8.87-19.57,13.72-29.15A47.08,47.08,0,0,1,293.17,7.35,22.47,22.47,0,0,1,306.7,2.1Z"/><path class="cls-1" d="M231.55,111.71c-5.05,0-10-2.41-14.35-7a72.77,72.77,0,0,1-12-16.81c-4.13-8.12-7.94-16.55-11.62-24.7-2.18-4.81-4.43-9.79-6.72-14.64-3.32-7-7.75-16.29-12.62-25.32A52.26,52.26,0,0,0,166.77,13c-3.8-4.17-7.56-6.29-11.19-6.29h0c-3.58,0-7.26,2.1-10.93,6.19a64.1,64.1,0,0,0-9.54,13.71c-3.93,7.8-7.66,15.87-11.26,23.68-2.11,4.56-4.28,9.27-6.48,13.88l-2.46,5.2c-3.53,7.5-7.19,15.25-11.33,22.6a60,60,0,0,1-11.12,14c-8,7.56-17.89,7.46-26.38-.25C60.4,100.58,55.83,94,51.66,85.07c-3.5-7.52-6.9-15.22-10.19-22.68-3-6.69-6-13.61-9.13-20.35-3-6.44-6.45-13.19-11-21.27A50.39,50.39,0,0,0,15,12.41C11.86,8.8,8.33,6.9,4.25,6.61L2.61,6.49V.13L4.4.15C9.14.22,13.48,2,17.65,5.72c5.77,5.09,10.47,11.76,14.78,21,3.24,6.94,6.37,14.06,9.4,20.95,2.9,6.58,5.89,13.39,9,20C54.94,76.56,59.07,84.53,63.43,92a39.93,39.93,0,0,0,8.34,9.65c5.94,5.2,11.6,2.94,15.3.13A37.63,37.63,0,0,0,97.86,88.59c4.44-8.81,8.73-17.88,12.89-26.66q2.7-5.73,5.44-11.45c1.29-2.7,2.58-5.45,3.82-8.11,3.13-6.7,6.37-13.62,9.93-20.25A70.35,70.35,0,0,1,140.37,7.61C145,2.64,150,.08,155.29,0h.25C160.8,0,166,2.5,170.86,7.44a66,66,0,0,1,12.6,18.41c3.28,6.86,6.49,13.88,9.59,20.67,2.81,6.14,5.71,12.49,8.65,18.68,4.22,8.9,8.09,16.91,12.61,24.69a49.91,49.91,0,0,0,9.56,11.61c5.34,4.85,11.26,4.65,16.24-.53a50.74,50.74,0,0,0,9.27-12.79c3.6-7.49,6.94-15.27,10.18-22.8,1.94-4.52,4-9.2,6-13.78,4.74-10.59,9.05-20.11,13.74-29.47a49,49,0,0,1,13-16.35A24,24,0,0,1,306.88.09L308.72,0V6.29l-1.56.19c-10.28,1.25-15.83,8.84-20.64,16.5-6,9.51-10.33,20.1-14.54,30.34-.9,2.19-1.81,4.39-2.73,6.57L268,62.81c-3.6,8.58-7.32,17.45-11.5,25.94a72.55,72.55,0,0,1-10,15.11c-4.31,5-9.36,7.72-14.59,7.85Z"/><path class="cls-1" d="M3.63,127.71c4,.28,6.54,1.89,8.27,4.32a77.84,77.84,0,0,1,6.76,10.87c3.6,7.38,6.64,15,10.25,22.43a56.73,56.73,0,0,0,6.75,10.85C39.53,181,44,181,48,176.27a48.8,48.8,0,0,0,6.43-9.87c3.55-7.13,6.6-14.51,10.05-21.69,1.7-3.55,3.77-6.92,5.78-10.31a17.51,17.51,0,0,1,2.56-3.1c4.69-4.75,9.82-4.9,14.17.13a50.76,50.76,0,0,1,6.86,10.48c3.6,7.2,6.63,14.68,10.18,21.91A70.66,70.66,0,0,0,111,175.46c4.45,5.87,9.77,5.92,13.65-.3s6.55-12.81,9.63-19.32c2.61-5.53,4.77-11.29,7.62-16.69a32.87,32.87,0,0,1,6.54-8.52c4.56-4.26,10.15-4,14.23.7a49.5,49.5,0,0,1,6.86,10.47c3.45,7,6.32,14.27,9.65,21.32a76.77,76.77,0,0,0,6.24,11.18c5,7.15,10.38,7.2,15.44.15a76.89,76.89,0,0,0,6.51-11.32c3.38-6.94,6.27-14.11,9.73-21a51.45,51.45,0,0,1,6.83-10.5c4.66-5.4,10.34-5.37,14.79.23a75.44,75.44,0,0,1,8,13.06c3.42,6.82,6.23,13.94,9.61,20.78a55.53,55.53,0,0,0,6.39,10.21c4.2,5.22,9,5.19,12.89-.24a75.75,75.75,0,0,0,6.9-12.52c3.06-6.62,5.51-13.53,8.71-20.08a69.06,69.06,0,0,1,7.39-11.33c1.85-2.43,4.63-3.78,8.5-4-.57.76-.8,1.42-1.15,1.49-4.71,1-7.71,4.21-9.8,8.09-3.1,5.75-5.78,11.73-8.52,17.66-2.46,5.33-4.63,10.8-7.21,16.06a30,30,0,0,1-4.69,6.82c-4,4.39-8.88,4.56-13,.31a35,35,0,0,1-5.88-8.11c-3.27-6.33-6-12.91-9.17-19.31a143.06,143.06,0,0,0-8-15.12c-5.58-8.6-11.58-8.66-17.07,0-3.59,5.63-6.26,11.84-9.23,17.85-2.78,5.64-5.23,11.46-8.19,17a34.3,34.3,0,0,1-5.85,7.81c-3.91,3.93-8.58,3.94-12.5,0a30.41,30.41,0,0,1-5.64-7.65c-3.29-6.51-6.07-13.27-9.22-19.85-2.46-5.13-4.79-10.4-7.85-15.17-5.51-8.59-12.35-8.8-18.06-.28-3.75,5.59-6.41,11.94-9.31,18.06-2.63,5.53-4.77,11.29-7.46,16.78a33.7,33.7,0,0,1-5.35,7.86c-3.85,4.22-8.56,4.34-12.58.27a33.44,33.44,0,0,1-5.92-8.07c-3.42-6.63-6.33-13.52-9.61-20.22a130.83,130.83,0,0,0-7.65-14.44c-5.61-8.55-11.67-8.63-17.06.08-4.08,6.6-7.1,13.86-10.57,20.84-2.54,5.1-4.84,10.34-7.64,15.29A28.43,28.43,0,0,1,47.07,179c-3.52,3.13-7.74,3.06-11.14-.2a30.12,30.12,0,0,1-6-7.72c-3.31-6.4-6.08-13.07-9.18-19.58-2.41-5.07-4.83-10.15-7.56-15-1.85-3.32-4.31-6.25-8.37-7.17C4.52,129.18,4.3,128.58,3.63,127.71Z"/><path class="cls-1" d="M117.58,183.08a10.57,10.57,0,0,1-7.46-3.5,35.57,35.57,0,0,1-6.23-8.5c-2-3.89-3.85-7.91-5.65-11.8-1.28-2.79-2.61-5.67-4-8.46-.36-.73-.71-1.47-1.07-2.21a106.89,106.89,0,0,0-6.47-12c-1.69-2.58-7.13-5.34-7.13-5.34h-.2c-2.81,0-5.29,3.1-6.87,5.66a147,147,0,0,0-7.43,14.32c-1,2.07-2,4.21-3,6.3-.81,1.62-1.61,3.29-2.38,4.91-1.65,3.45-3.35,7-5.28,10.41a30.23,30.23,0,0,1-6.19,7.58,9.45,9.45,0,0,1-13.5-.25A31.6,31.6,0,0,1,28.44,172c-2.06-4-3.93-8.13-5.75-12.13-1.1-2.45-2.25-5-3.42-7.43l0-.08c-2.34-4.92-4.76-10-7.44-14.81-2.06-3.68-4.27-5.62-7.19-6.29a2.82,2.82,0,0,1-1.72-1.45c-.14-.22-.3-.46-.51-.73L0,126l3.89.26a12,12,0,0,1,9.55,5,79.13,79.13,0,0,1,6.88,11.08c1.81,3.72,3.51,7.55,5.15,11.27s3.28,7.43,5.06,11.07A54.69,54.69,0,0,0,37,175.21c1.56,1.93,3.15,2.91,4.72,2.93h.05s3.72-1.69,4.85-3a46.62,46.62,0,0,0,6.19-9.52c2-3.94,3.81-8,5.59-12,1.43-3.18,2.91-6.46,4.45-9.66s3.35-6.24,5.11-9.19l.75-1.26a18.9,18.9,0,0,1,2.81-3.44c2.76-2.79,5.79-4.23,8.77-4.12s5.59,1.55,8,4.33a52.88,52.88,0,0,1,7.1,10.85c1.9,3.8,3.67,7.74,5.37,11.54,1.54,3.43,3.13,7,4.81,10.38a68.17,68.17,0,0,0,6.76,11.35c1.89,2.49,3.87,3.75,5.73,3.68,2.22-.1,4-2.15,5-3.85a127.43,127.43,0,0,0,7.37-14.45q1.07-2.36,2.16-4.68c1-2.15,2-4.39,2.92-6.56,1.47-3.38,3-6.87,4.74-10.21a34.64,34.64,0,0,1,6.89-9,11,11,0,0,1,16.78.83A50.89,50.89,0,0,1,171.08,141c1.93,3.92,3.71,8,5.43,11.92,1.35,3.11,2.76,6.32,4.23,9.42a75.6,75.6,0,0,0,6.09,10.93c1.47,2.11,6.28,4.85,6.28,4.85h.12c2.49,0,4.77-2.45,6.25-4.5a74,74,0,0,0,6.35-11c1.53-3.16,3-6.42,4.4-9.58,1.69-3.76,3.43-7.66,5.31-11.42a53,53,0,0,1,7.07-10.84c2.61-3,5.61-4.61,8.7-4.61h.19c3.12.06,6.09,1.76,8.58,4.9a77.27,77.27,0,0,1,8.14,13.34c1.8,3.57,3.44,7.27,5,10.85,1.45,3.27,3,6.65,4.57,9.9A53.91,53.91,0,0,0,264,175c1.19,1.47,3,3.21,5.09,3.21h.1c2.07-.06,3.8-1.87,4.88-3.38a75,75,0,0,0,6.72-12.21c1.35-2.93,2.61-6,3.83-8.94,1.52-3.68,3.1-7.48,4.88-11.13A70.6,70.6,0,0,1,297,131c2.21-2.88,5.51-4.44,9.81-4.65l3.72-.17-2.23,3a7.49,7.49,0,0,0-.41.63,2.84,2.84,0,0,1-1.79,1.53c-3.57.74-6.38,3.09-8.59,7.19-2.63,4.88-5,10-7.29,15L289.1,156c-1,2.19-2,4.45-3,6.64-1.35,3.11-2.74,6.32-4.27,9.43a32,32,0,0,1-4.95,7.21,10.84,10.84,0,0,1-7.79,4H269a10.61,10.61,0,0,1-7.59-3.61,36.87,36.87,0,0,1-6.16-8.52c-1.91-3.69-3.67-7.52-5.37-11.22-1.23-2.66-2.5-5.42-3.8-8.09-.43-.86-.84-1.73-1.26-2.6a114.35,114.35,0,0,0-6.59-12.31c-1.67-2.58-4.26-5.66-7.09-5.66H231c-2.81,0-5.34,3.07-7,5.62A122.25,122.25,0,0,0,217.14,150q-1.08,2.25-2.17,4.49c-1.09,2.2-2.14,4.48-3.17,6.68-1.58,3.41-3.22,6.94-5,10.33a35.4,35.4,0,0,1-6.15,8.2,10.64,10.64,0,0,1-7.47,3.47h0a10.69,10.69,0,0,1-7.52-3.47,32.51,32.51,0,0,1-6-8.15c-1.93-3.82-3.71-7.78-5.44-11.61-1.24-2.76-2.52-5.61-3.85-8.38l-1.23-2.6a111,111,0,0,0-6.55-12.46c-2.4-3.76-5-5.75-7.59-5.78h.05s-5.82,3.1-7.51,5.61a103,103,0,0,0-7.45,14.15l-1.73,3.69c-1.22,2.56-2.35,5.23-3.45,7.81-1.26,3-2.56,6-4,9a35.71,35.71,0,0,1-5.64,8.27,10.5,10.5,0,0,1-7.5,3.82Z"/></g></g></svg>