<svg xmlns="http://www.w3.org/2000/svg" viewBox="0 0 180.11 194.46"><defs><style>.cls-1{fill:#fff;}</style></defs><title>Asset 33</title><g id="Layer_2" data-name="Layer 2"><g id="Layer_2-2" data-name="Layer 2"><path class="cls-1" d="M98.24,144.16c2.94,9.88-1.24,17.05-7.36,23.61a17.21,17.21,0,0,0,8,3.06,6.66,6.66,0,0,1,5.83,4.68c.68,1.81,0,2.67-1.77,2.47a4.25,4.25,0,0,0-2.1.33c-3.91,1.66-7.5,1.73-11-1.5-.85-.79-3-.83-4.12-.29A22.27,22.27,0,0,1,76,178.27a3.18,3.18,0,0,0-.66.15,20.83,20.83,0,0,0,1.52,1.77c2,1.85,2.28,4.21,1.7,6.76a2,2,0,0,1-1.2,1.34,1.74,1.74,0,0,1-1.55-.73c-1-2.55-2.81-2.19-4.83-1.85s-4.07.08-6.1.26a9.08,9.08,0,0,0-3.09.86c-2.06,1-4,2.21-6.08,3.13a3.55,3.55,0,0,0-2.11,2.64c-.21.74-.66,1.91-1.06,1.86a3.27,3.27,0,0,1-2.21-1.54,53.36,53.36,0,0,1-1.15-6l-5.26-.88a4.73,4.73,0,0,1-1.07-.22,4.3,4.3,0,0,0-4.66.85c-.52.43-1.8.6-2.15.23a3,3,0,0,1-.31-2.39c1-3.54,3.37-5.56,6.77-5.22a26.41,26.41,0,0,0,12.9-1.77,6.56,6.56,0,0,0,2.55-1.8c3.36-4.17,6.63-8.43,9.9-12.68a5.36,5.36,0,0,0,.76-1.62c.25-.74.32-1.55.59-2.27,2.62-7,.28-13.24-2.58-19.38a6.15,6.15,0,0,0-1.8-2.07c-2.9-2.3-5.76-4.71-8.83-6.73-10.51-6.92-16.93-17.18-21-29.38A48.72,48.72,0,0,1,33,80a70.84,70.84,0,0,0-5.16-36.94c-2.08-4.8-5.28-8.6-10.21-10a15.3,15.3,0,0,0-9.11.53,46,46,0,0,1-5.23,1.77,3.59,3.59,0,0,1-3-.52c-.51-.52-.39-2.1-.1-3a8.33,8.33,0,0,1,1.84-3.1A30.6,30.6,0,0,1,7.41,23.8c3.24-2.09,5.07-5.21,6.64-8.67C17.72,7.05,23.29,1.57,31.81.21c6.1-1,11.05,1.54,15.31,6a44.56,44.56,0,0,1,9.82,16.15C60.32,32,66.4,39.12,73.74,45.23c4.47,3.71,9.16,7.12,13.58,10.9,5,4.26,10,8.54,14.65,13.23a207.68,207.68,0,0,1,26.95,33.14c2.68,4.13,4.72,8.74,7.06,13.13a4.6,4.6,0,0,0,.81,1.2q17.46,16.76,35,33.48c1.4,1.35,2.93,2.56,4.32,3.92a15.71,15.71,0,0,1,2.28,2.78c1.59,2.56.76,4.94-2,5.68a19.31,19.31,0,0,1-3.88.45c-1.4.07-2.8,0-4.5,0l1.68,1.7c3.9,4,7.48,8.22,9.56,13.66a19.39,19.39,0,0,1,.87,3.57,2.05,2.05,0,0,1-1.7,2.57,6.07,6.07,0,0,1-2.32.15,23.42,23.42,0,0,1-10.89-4.42c-11.64-9.11-23.43-18-34.8-27.49-6.35-5.31-13.65-8.39-20.69-12.13a4.46,4.46,0,0,0-4.49.09C103,142.06,100.7,143,98.24,144.16ZM54.87,181.9c.61.13,1.68.15,1.73.4a3,3,0,0,1-.35,2.15,42,42,0,0,1-3.37,3.3l.35.53c2.52-1.44,5-2.93,7.56-4.3a7.08,7.08,0,0,1,2.74-.9c3.3-.25,6.61-.36,9.92-.52l.19-.81a7.06,7.06,0,0,0-2-1.11c-1.54-.26-3.13-.18-4.68-.42-.68-.1-1.64-.49-1.86-1a2.72,2.72,0,0,1,.6-2.15c2.22-2.75,4.55-5.4,6.82-8.07l-3.59-2c-2.9,3.66-5.85,7.32-8.73,11a8.05,8.05,0,0,1-4.05,3,5,5,0,0,0-1.29.94c-.39-.06-.83-.28-1.16-.16a20.81,20.81,0,0,1-10.31,1,1.55,1.55,0,0,0-.42.05,38,38,0,0,0,4.6,1c2.35.45,4.63.64,6.47-1.51C54.24,182.08,54.59,182,54.87,181.9Zm46.43-42.57c-3.64-1.52-7.11-2.79-10.44-4.38-8.29-4-16.4-8.3-23-15.27-7.85-8.33-14-18-19.6-28.2-.1-.2-.3-.43-.26-.6.15-.73.2-1.86.63-2.07s1.4.18,2,.58.63,1,.94,1.54A149,149,0,0,0,68.1,115.12c.37.43.88,1,1.35,1a77.23,77.23,0,0,0,10.64.16,41,41,0,0,0,9.1-2.26,6.68,6.68,0,0,0,4.25-4.67,2.06,2.06,0,0,1,2.41-1.76c4.14.15,7.07-2.07,8.09-6.42a36,36,0,0,0,.73-7.35c0-1.51.62-2,1.86-2.07a18.87,18.87,0,0,0,2.5-.1c2.2-.38,4.28-1,5.45-3.94-6-6.43-11.92-13.07-18.17-19.3A141.33,141.33,0,0,0,83.76,57.73a16.34,16.34,0,0,0-9.51-3.55c-5-.23-9.07,2.11-12.4,5.86s-6.51,7.64-9.56,11.65S45.72,77.46,41,76.83c-1.09-.15-2.11-.38-2-1.79s1.17-1.4,2.16-1.27c3.92.52,6.81-1.22,9.24-4.47,2.78-3.72,5.71-7.34,8.76-10.82,3.26-3.72,7.16-6.42,12-7.21,1.31-.21,2.65-.21,4.2-.32-.55-.49-.93-.84-1.33-1.17-8.5-7.08-16-14.92-19.8-26.23A43.81,43.81,0,0,0,45.77,9.22C38.64.89,29.57,2.57,23.16,7.68c-4.45,3.55-6.14,9.06-8.61,13.5a28.91,28.91,0,0,1,4.29,3.29c1.73,1.94-.22,3.56-.87,5.14a36.41,36.41,0,0,1,4.59,2.3,22.71,22.71,0,0,1,8.26,10.34C36,54.89,37.49,68.09,36.1,81.74c-.21,2.07-.56,4.13-.58,6.2a41.46,41.46,0,0,0,2.81,14.47c4,11,9.83,20.34,19.46,26.52,1.89,1.21,3.57,2.79,5.46,4,4.26,2.68,6.65,6.74,8.17,11.68s2.23,9.71.61,14.71a34.58,34.58,0,0,0-.94,3.93c-.2,1,.06,2.19,1.12,2.19,1.55,0,3.44.06,4.59-.81a26.9,26.9,0,0,0,8.09-10,23.56,23.56,0,0,0,1.84-6.54c.22-1.62.67-2.48,2.09-3.09C92.94,143.24,97,141.3,101.3,139.33Zm-17.94-12.2c.62.41,1,.68,1.38.9a97,97,0,0,0,24.45,9.76,3,3,0,0,0,.92.17c3.32-.27,6.89-3.94,7.36-7.54.28-2.13.55-2.31,2.53-2,3.33.54,6.66.86,9.95-.22,3-1,4.5-3,4.11-6.42a18.19,18.19,0,0,0-1.78-6.4c-2.87-5.35-6-10.5-9.13-15.71-.41-.69-.93-1.3-1.47-2a12.26,12.26,0,0,1-7.61,4.68,14.47,14.47,0,0,1-4.94,10.1c-1.79,1.7-3.82,3.12-5.74,4.68A24.29,24.29,0,0,0,101.2,119a22.9,22.9,0,0,1-12.39,7.12Zm42.6,5.25c.46.36.64.53.84.66,12.4,8.26,24.86,16.42,37.16,24.85,3.46,2.37,7,2.57,10.77,2.15a13.18,13.18,0,0,0,1.86-.56c-6.5-6.81-13.46-12.39-19.82-18.69S144,128.34,137.39,122C137.34,129.39,132.69,132,126,132.38Zm11,22.53-.16.26c.71.57,1.4,1.16,2.12,1.72,9.11,7.17,18.13,14.49,27.41,21.4,2.53,1.88,5.81,2.65,8.83,3.65,1.69.56,2.1,0,1.66-1.92a13.39,13.39,0,0,0-1.39-3.54c-3.35-5.86-8-10.31-13.13-14.34a2.74,2.74,0,0,0-1.46-.46,56.75,56.75,0,0,1-22.6-6.25C137.82,155.22,137.38,155.08,137,154.91Zm22.06,3-38.42-25.25a40.08,40.08,0,0,1-2.89,4.53,30.76,30.76,0,0,1-3.57,3.13,4.3,4.3,0,0,0,.52.35L144.58,155A31.23,31.23,0,0,0,159,157.94ZM107.58,94.86c0,.9-.09,1.74-.13,2.57-.41,7.82-3.62,11.75-10.74,13.21a1.69,1.69,0,0,0-1,.84,10.06,10.06,0,0,1-5.57,5.2A45,45,0,0,1,81.23,119a64,64,0,0,1-8.65.08l-.13.46c1.38,1.08,2.77,2.13,4.12,3.24A5.48,5.48,0,0,0,81.14,124c2.22-.36,4.43-.74,6.65-1.07,4.66-.68,8.43-3.14,11.72-6.62.74-.77,1.62-1.38,2.4-2.1,2.43-2.2,5-4.29,7.21-6.68a7.89,7.89,0,0,0,2.09-5.83c-.12-2.4-.08-2.43,2.24-2.65A8.65,8.65,0,0,0,120,94.93l-3.54-4.36C114.25,93.92,111.05,94.6,107.58,94.86Zm-7.36,79.89a23.15,23.15,0,0,1-3.1-.63c-3.44-1.24-6.89-2.48-10.28-3.9-1.16-.49-1.23-1.73-.57-2.86.37-.64.84-1.21,1.24-1.78l-3.63-.72c-.49,1.09-1,2.18-1.49,3.31A6.3,6.3,0,0,1,78,172.1a11.59,11.59,0,0,1-3.24.51c-1.57,0-2.51.78-3.3,2.35,4,.32,7.84.58,11.65-.94,2.88-1.14,5.82-1.62,8.47,1C93.71,177.24,97.13,177.12,100.22,174.75Zm-15.65-14.1c1,.53,1.72,1.28,2.53,1.34a6.76,6.76,0,0,0,6-3.08c2.71-3.89,2.72-8.42,1.64-13.16-1.53.69-2.93,1.3-4.29,2a1.23,1.23,0,0,0-.59.84C89.35,153,87.29,156.73,84.57,160.65ZM16.35,25.79c-1.52-1.46-4.21-1.9-5.62-.76-2.16,1.74-4.2,3.66-6.27,5.54A10.36,10.36,0,0,0,3.4,32a68.78,68.78,0,0,1,8.23-2.27C14,29.37,15.23,27.82,16.35,25.79Zm63.85,140-3.8,3.34A4,4,0,0,0,80.2,165.83Z"/><path class="cls-1" d="M33.09,19.54a3.67,3.67,0,0,1-3.59,3.81A3.6,3.6,0,0,1,26,19.47a3.74,3.74,0,0,1,3.59-3.85A3.72,3.72,0,0,1,33.09,19.54Zm-3.87,1.77h.66c.39-.61,1.15-1.27,1.09-1.81S30.06,18,29.55,18s-1.34.89-1.41,1.47S28.82,20.71,29.22,21.31Z"/></g></g></svg>