<svg xmlns="http://www.w3.org/2000/svg" viewBox="0 0 237.53 122.23"><defs><style>.cls-1{fill:#fff;}</style></defs><title>Asset 5</title><g id="Layer_2" data-name="Layer 2"><g id="Layer_2-2" data-name="Layer 2"><path class="cls-1" d="M192.18,61.82,211.07,43s0-.11-.08-.31H146.88c1.31,2.48,2.78,4.76,3.78,7.23,7.22,17.81-3.49,36.9-21.38,42.13a40.05,40.05,0,0,1-10.93,1.57c-29.65.12-59.3.07-88.95.07h-3l18.7,19.21-9.91,9.35C23.72,110.07,11.24,99.09,0,86.16L36.24,50.92l9.6,9.2L26.51,79.67H90.74l-1.37-2.3c-8-13.72-4.56-31.08,8.24-41.1a35.08,35.08,0,0,1,22.23-7.59q44.25,0,88.5,0h2.83L192.37,9.35,202.32,0l35.21,35.82-35.4,36ZM118.91,42.36a21.73,21.73,0,0,0-11.31,3.28,17.73,17.73,0,0,0-5.85,25.17c6.4,9.7,21.25,12,30.28,4.7,7.77-6.28,9.59-15.5,4.3-23.93C132.39,45.28,126.27,42.48,118.91,42.36Z"/></g></g></svg>